Coordinates
version=1
nRows=31
nColumns=34
inDegrees=no

Units are S.I. units (second, meters, Newtons, ...)
If the header above contains a line with 'inDegrees', this indicates whether rotational values are in degrees (yes) or radians (no).

endheader
time	pelvis_tilt	pelvis_list	pelvis_rotation	pelvis_tx	pelvis_ty	pelvis_tz	hip_flexion_r	hip_adduction_r	hip_rotation_r	knee_angle_r	ankle_angle_r	subtalar_angle_r	mtp_angle_r	hip_flexion_l	hip_adduction_l	hip_rotation_l	knee_angle_l	ankle_angle_l	subtalar_angle_l	mtp_angle_l	lumbar_extension	lumbar_bending	lumbar_rotation	arm_flex_r	arm_add_r	arm_rot_r	elbow_flex_r	pro_sup_r	arm_flex_l	arm_add_l	arm_rot_l	elbow_flex_l	pro_sup_l
2.46	-0.0485437	0.0249168	-0.0200593	-0.130266	1.21486	-0.555915	0.163061	-0.161105	-0.293825	0.349701	-0.633943	-0.0263406	-0.119619	0.172781	-0.090555	-0.417973	0.207986	-0.549744	0.277858	-0.119613	-0.169582	-0.0722327	-0.0152662	0.408523	-0.425611	-0.121034	2.57945	1.52924	0.557562	-0.323805	0.291196	2.52839	1.67803
2.47	-0.0431501	0.0250043	-0.0200631	-0.132861	1.22551	-0.556955	0.16607	-0.162118	-0.260776	0.369102	-0.629931	-0.0517808	-0.119615	0.169846	-0.0869928	-0.421022	0.201598	-0.53131	0.295659	-0.119608	-0.185429	-0.0714565	-0.0173919	0.378082	-0.405333	-0.134658	2.58142	1.53652	0.539543	-0.313924	0.288312	2.52934	1.68461
2.48	-0.0409224	0.0252002	-0.0210278	-0.135081	1.23489	-0.55788	0.167933	-0.162281	-0.239071	0.374739	-0.621473	-0.0676572	-0.11961	0.167008	-0.0831207	-0.433591	0.187768	-0.512853	0.318161	-0.119604	-0.195705	-0.0708761	-0.0188552	0.349204	-0.385507	-0.140795	2.58401	1.54938	0.521173	-0.30606	0.287258	2.52873	1.69009
2.49	-0.0418866	0.0252539	-0.0226513	-0.13694	1.24298	-0.5587	0.168988	-0.161602	-0.228593	0.367887	-0.6089	-0.0730813	-0.119605	0.165146	-0.0793422	-0.452555	0.168971	-0.495351	0.342327	-0.119599	-0.200373	-0.0702292	-0.0195836	0.32159	-0.366948	-0.140348	2.58693	1.56611	0.503097	-0.300051	0.288124	2.5262	1.69502
2.5	-0.0456696	0.0249457	-0.024726	-0.138497	1.24979	-0.559431	0.169664	-0.160103	-0.227954	0.350992	-0.593219	-0.0679859	-0.119601	0.164829	-0.0760926	-0.474333	0.147943	-0.479585	0.365239	-0.119594	-0.200089	-0.0692658	-0.019502	0.295304	-0.350339	-0.13448	2.58991	1.58492	0.486064	-0.295707	0.290799	2.52176	1.69987
2.51	-0.0516242	0.0240964	-0.0271335	-0.139839	1.25536	-0.560081	0.17042	-0.157797	-0.234992	0.327207	-0.575929	-0.0532463	-0.119596	0.166311	-0.0738408	-0.495646	0.127346	-0.466075	0.384537	-0.11959	-0.19599	-0.0677776	-0.0185772	0.270672	-0.336155	-0.124463	2.59275	1.6043	0.470776	-0.292852	0.294971	2.51582	1.70502
2.52	-0.0589776	0.022577	-0.0298204	-0.141055	1.25974	-0.560646	0.171695	-0.154691	-0.247233	0.299903	-0.558703	-0.0306408	-0.119591	0.169582	-0.0730612	-0.514038	0.109508	-0.455089	0.398607	-0.119585	-0.189447	-0.065617	-0.0168451	0.248155	-0.324621	-0.111555	2.59532	1.62304	0.457786	-0.29134	0.300175	2.50903	1.71063
2.53	-0.0669641	0.0203222	-0.0327736	-0.142243	1.263	-0.561125	0.173855	-0.150787	-0.262215	0.272211	-0.543039	-0.00262493	-0.119587	0.174449	-0.0741854	-0.528109	0.0962265	-0.446686	0.406599	-0.11958	-0.181821	-0.0627129	-0.014415	0.228233	-0.315718	-0.0969184	2.59755	1.64032	0.447444	-0.291053	0.305863	2.5022	1.71663
2.54	-0.074898	0.0173314	-0.0359997	-0.143506	1.26522	-0.561512	0.17714	-0.146108	-0.277713	0.246656	-0.529984	0.0280187	-0.119582	0.180618	-0.0775346	-0.537438	0.0886539	-0.440781	0.408304	-0.119576	-0.174273	-0.0590847	-0.0114572	0.211311	-0.309213	-0.0815456	2.59942	1.65555	0.439889	-0.291902	0.311491	2.4961	1.72268
2.55	-0.0822503	0.0136452	-0.0395145	-0.144913	1.26646	-0.561792	0.181621	-0.140716	-0.291895	0.224948	-0.520005	0.0585846	-0.119578	0.187744	-0.0832577	-0.542298	0.08727	-0.437181	0.403984	-0.119571	-0.167677	-0.0548582	-0.00817558	0.197665	-0.304716	-0.0662204	2.60091	1.66842	0.435069	-0.293824	0.316586	2.4914	1.72829
2.56	-0.0886906	0.0093557	-0.0433511	-0.146497	1.26676	-0.561953	0.187177	-0.134725	-0.303435	0.207935	-0.513024	0.0867836	-0.119573	0.195455	-0.0913059	-0.543315	0.0919293	-0.435598	0.394213	-0.119566	-0.162601	-0.0502455	-0.00476625	0.187421	-0.301748	-0.0515053	2.60197	1.67875	0.432789	-0.296774	0.320799	2.48849	1.73284
2.57	-0.0940452	0.00461264	-0.0475683	-0.148262	1.26614	-0.561987	0.193531	-0.1283	-0.311598	0.195728	-0.508575	0.110988	-0.119568	0.203364	-0.101434	-0.541165	0.101959	-0.435654	0.37975	-0.119562	-0.159326	-0.0455137	-0.00137001	0.180541	-0.299814	-0.0377739	2.60254	1.68655	0.432763	-0.300701	0.323948	2.48752	1.73573
2.58	-0.0982493	-0.000389379	-0.052252	-0.150184	1.26462	-0.561891	0.200318	-0.121663	-0.316245	0.187936	-0.505992	0.130306	-0.119564	0.21108	-0.113224	-0.536384	0.116303	-0.436886	0.361447	-0.119557	-0.157897	-0.040955	0.00195823	0.176838	-0.298466	-0.0252523	2.60254	1.6919	0.434662	-0.305534	0.326021	2.48831	1.73647
2.59	-0.101318	-0.00543011	-0.0574973	-0.152221	1.26218	-0.56167	0.207177	-0.115073	-0.317702	0.183905	-0.504587	0.14451	-0.119559	0.218242	-0.126134	-0.529308	0.1337	-0.438765	0.340211	-0.119552	-0.158174	-0.0368515	0.00523832	0.176003	-0.297338	-0.0140432	2.6019	1.69495	0.438127	-0.311172	0.327152	2.49046	1.73478
2.6	-0.10333	-0.0102826	-0.0633762	-0.154321	1.25884	-0.561334	0.213815	-0.108804	-0.316539	0.182931	-0.503749	0.153872	-0.119554	0.224561	-0.139558	-0.520124	0.152871	-0.440726	0.317001	-0.119548	-0.159882	-0.0334421	0.00852342	0.177646	-0.29616	-0.00413939	2.60055	1.69578	0.442784	-0.317491	0.327562	2.49338	1.73059
2.61	-0.104415	-0.0147323	-0.0699046	-0.156447	1.25457	-0.560897	0.220054	-0.103113	-0.313314	0.184387	-0.502994	0.158994	-0.11955	0.229857	-0.152896	-0.508979	0.172675	-0.442223	0.292841	-0.119543	-0.162659	-0.0309001	0.0118575	0.181326	-0.294759	0.00455085	2.59845	1.69443	0.448245	-0.32434	0.327506	2.49642	1.72411
2.62	-0.104748	-0.0186002	-0.0770206	-0.158572	1.24937	-0.560393	0.225838	-0.0982134	-0.308388	0.187787	-0.501965	0.160651	-0.119545	0.234073	-0.165607	-0.496069	0.192207	-0.44279	0.268814	-0.119538	-0.166115	-0.0293239	0.0152487	0.186578	-0.293053	0.0121651	2.59561	1.69088	0.454131	-0.331548	0.32724	2.49893	1.71576
2.63	-0.104538	-0.0217685	-0.0845794	-0.160671	1.24323	-0.559859	0.231219	-0.0942621	-0.301857	0.19279	-0.500438	0.159684	-0.119541	0.237268	-0.17725	-0.481668	0.210818	-0.442117	0.24598	-0.119534	-0.169878	-0.028738	0.0186548	0.192931	-0.291038	0.018856	2.59212	1.68515	0.460095	-0.338923	0.327001	2.50036	1.7061
2.64	-0.103983	-0.0241825	-0.0923683	-0.162721	1.23612	-0.559328	0.236328	-0.0913462	-0.293619	0.199159	-0.49833	0.156915	-0.119536	0.239592	-0.187499	-0.466137	0.228087	-0.440132	0.225272	-0.119529	-0.17362	-0.0290973	0.0219812	0.199936	-0.288781	0.0247821	2.5881	1.67745	0.465828	-0.346266	0.326981	2.50029	1.69574
2.65	-0.10326	-0.0258367	-0.100134	-0.164706	1.22804	-0.558835	0.241339	-0.0894883	-0.283518	0.206726	-0.495708	0.153103	-0.119531	0.241243	-0.196161	-0.449915	0.243756	-0.437062	0.207375	-0.119524	-0.177095	-0.0302955	0.0250876	0.207201	-0.286384	0.0301109	2.58368	1.66824	0.471067	-0.353382	0.327295	2.4985	1.68538
2.66	-0.102521	-0.0267681	-0.10762	-0.166631	1.21896	-0.558414	0.246435	-0.0886588	-0.271511	0.215346	-0.492777	0.148901	-0.119527	0.242429	-0.203169	-0.433516	0.257674	-0.433471	0.19266	-0.11952	-0.180148	-0.0321854	0.027805	0.214417	-0.28397	0.0350207	2.57902	1.65829	0.475586	-0.360099	0.327966	2.49493	1.6757
2.67	-0.101889	-0.0270496	-0.114605	-0.168506	1.20889	-0.558091	0.251776	-0.0887888	-0.257763	0.22486	-0.489842	0.14481	-0.119522	0.243342	-0.20858	-0.417531	0.269759	-0.430218	0.18116	-0.119515	-0.182726	-0.0346017	0.0299637	0.221365	-0.281655	0.0396958	2.57423	1.64843	0.479209	-0.366276	0.328943	2.48966	1.66724
2.68	-0.10145	-0.0267831	-0.120932	-0.170344	1.19783	-0.557882	0.257473	-0.0897762	-0.242669	0.235072	-0.487248	0.141138	-0.119517	0.244131	-0.212566	-0.402614	0.279984	-0.428315	0.172606	-0.11951	-0.18487	-0.0373798	0.0314281	0.227907	-0.279539	0.0443118	2.56942	1.63942	0.481811	-0.371812	0.330118	2.48293	1.6603
2.69	-0.101238	-0.0260969	-0.126525	-0.172161	1.18577	-0.557789	0.26358	-0.0914878	-0.22679	0.245748	-0.485276	0.138002	-0.119513	0.244897	-0.215395	-0.389436	0.288401	-0.428669	0.166509	-0.119506	-0.186692	-0.0403681	0.0321284	0.233968	-0.277705	0.0490123	2.56469	1.63188	0.483331	-0.376642	0.331362	2.47503	1.65501
2.7	-0.101216	-0.0251289	-0.131391	-0.173971	1.17272	-0.557802	0.270087	-0.0937575	-0.210777	0.25664	-0.484015	0.135363	-0.119508	0.245703	-0.217404	-0.378596	0.295186	-0.431738	0.162239	-0.119501	-0.188364	-0.0434285	0.0320862	0.239509	-0.276215	0.0538834	2.56012	1.62617	0.483781	-0.380727	0.332546	2.46624	1.65134
2.71	-0.101334	-0.0240025	-0.1356	-0.175801	1.15868	-0.557908	0.276946	-0.096389	-0.195264	0.267571	-0.483196	0.133079	-0.119503	0.246594	-0.218964	-0.37048	0.300728	-0.43717	0.159105	-0.119496	-0.190124	-0.046435	0.0314216	0.24451	-0.275113	0.0589323	2.55582	1.62236	0.483251	-0.384041	0.333561	2.45682	1.64916
2.72	-0.101559	-0.022832	-0.139264	-0.177685	1.14366	-0.558091	0.284117	-0.0991697	-0.18077	0.27854	-0.482016	0.130925	-0.119499	0.24767	-0.220431	-0.365098	0.305715	-0.443514	0.156403	-0.119492	-0.192263	-0.0492832	0.0303329	0.248951	-0.274417	0.0640741	2.55192	1.62024	0.481905	-0.386577	0.334332	2.44696	1.64836
2.73	-0.101891	-0.0217156	-0.142501	-0.17967	1.12766	-0.558339	0.291673	-0.101882	-0.167626	0.28986	-0.478968	0.128612	-0.119494	0.249194	-0.22209	-0.361937	0.311225	-0.448063	0.153449	-0.119487	-0.195071	-0.0518911	0.0290617	0.252803	-0.274105	0.0691277	2.54857	1.61941	0.47997	-0.388347	0.334823	2.43676	1.64879
2.74	-0.102397	-0.0207289	-0.145388	-0.181806	1.11069	-0.558643	0.299902	-0.104308	-0.15593	0.302277	-0.471728	0.125784	-0.11949	0.251713	-0.224135	-0.35989	0.318768	-0.446928	0.14961	-0.119482	-0.198796	-0.0541904	0.0278489	0.256021	-0.274108	0.0738172	2.54593	1.61939	0.477709	-0.389398	0.335024	2.42625	1.65032
2.75	-0.103268	-0.01993	-0.147936	-0.184156	1.09276	-0.559003	0.309409	-0.106229	-0.145529	0.31704	-0.457155	0.122028	-0.119485	0.256162	-0.22666	-0.357317	0.330272	-0.43537	0.144351	-0.119478	-0.203592	-0.0561117	0.0268937	0.258552	-0.274298	0.0777782	2.54412	1.61976	0.475389	-0.389813	0.334927	2.41539	1.65278
2.76	-0.104848	-0.0193701	-0.150074	-0.186806	1.07382	-0.559427	0.321172	-0.107416	-0.136032	0.335862	-0.431499	0.116866	-0.11948	0.26391	-0.229666	-0.352224	0.347948	-0.408447	0.137263	-0.119473	-0.209477	-0.0575644	0.0263254	0.260333	-0.274498	0.0805734	2.5432	1.62028	0.473238	-0.389705	0.334492	2.40407	1.65594
